<svg viewBox="0 0 64 64" xmlns="http://www.w3.org/2000/svg"><path d="M3 13C3 7.5 7.5 3 13 3h38c5.5 0 10 4.5 10 10v38c0 5.5-4.5 10-10 10H13C7.5 61 3 56.5 3 51V13z" fill="#314a52"/><path d="M9.5 5.1c1-.5 2.1-.8 4-.9 1.9-.2 4.3-.2 7.7-.2h21.6c3.4 0 5.8 0 7.7.2 1.9.2 3.1.4 4 .9 1.9 1 3.4 2.5 4.4 4.4.5 1 .8 2.1.9 4 .1 1.7.2 3.8.2 6.6-.1 12.2-7.7 22.7-19 28.1-3.5 2.3-9.8 3.8-17 3.8-11 0-19.9-3.6-20-7.9V21.2c0-3.4 0-5.8.2-7.7.2-1.9.4-3.1.9-4C6 7.6 7.6 6 9.5 5.1zM42.9 0H21.1c-3.3 0-5.9 0-8 .2-2.1.1-3.8.5-5.5 1.3C5 2.9 2.9 5 1.5 7.6.7 9.3.3 11 .2 13.2c-.2 2-.2 4.6-.2 7.9v21.8c0 3.3 0 5.9.2 8 .2 2.1.5 3.9 1.4 5.5 1.3 2.6 3.4 4.7 6 6.1 1.6.8 3.4 1.2 5.5 1.4 2.1.2 4.7.2 8 .2h21.8c3.3 0 5.9 0 8-.2 2.1-.2 3.9-.5 5.5-1.4 2.6-1.3 4.8-3.5 6.1-6.1.8-1.6 1.2-3.4 1.4-5.5.2-2.1.2-4.7.2-8V21.1c0-3.3 0-5.9-.2-8-.2-2.1-.5-3.9-1.4-5.5C61.1 5 59 2.9 56.4 1.5 54.8.7 53 .3 50.9.1c-2.1-.1-4.7-.1-8-.1z" fill-rule="evenodd" clip-rule="evenodd"/><path d="M54 22c-6.6 0-12-5.4-12-12h-8v32c0 3.3-2.7 6-6 6s-6-2.7-6-6 2.7-6 6-6c.7 0 1.4.1 2 .3v-8.2c-.7-.1-1.3-.1-2-.1-7.7 0-14 6.3-14 14s6.3 14 14 14 14-6.3 14-14V26c3.3 2.5 7.5 4 12 4v-8z" fill="#fe2c55"/><path d="M52 20c-6.6 0-12-5.4-12-12h-8v32c0 3.3-2.7 6-6 6s-6-2.7-6-6 2.7-6 6-6c.7 0 1.4.1 2 .3v-8.2c-.7-.1-1.3-.1-2-.1-7.7 0-14 6.3-14 14s6.3 14 14 14 14-6.3 14-14V24c3.3 2.5 7.5 4 12 4v-8z" fill="#25f4ee"/><path d="M52 21.8c-3-.5-5.6-2.1-7.4-4.4-2.3-1.8-3.9-4.4-4.4-7.4H34v32c0 3.3-2.7 6-6 6-2.2 0-4.1-1.2-5.1-2.9-1.7-1.1-2.9-3-2.9-5.1 0-3.3 2.7-6 6-6 .7 0 1.4.1 2 .3V28c-7.7 0-14 6.3-14 14 0 3.4 1.2 6.4 3.2 8.8 2.4 2 5.5 3.2 8.8 3.2 7.7 0 14-6.3 14-14V24c3.3 2.5 7.5 4 12 4v-6.2z" fill="#fff"/></svg>